<svg width="115" height="49" viewBox="0 0 115 49" fill="none" xmlns="http://www.w3.org/2000/svg">
<path d="M73.1241 13.5927L84.1271 13.5927L84.1271 22.8825L73.1241 22.8825L73.1241 13.5927Z" fill="#C0B2B1"/>
<path d="M73.1251 22.8851L69.9394 22.0163L69.9394 14.4626L73.1251 13.5938L73.1251 22.8851Z" fill="#8C7A7A"/>
<path d="M84.1298 13.5938L87.3155 14.4626L87.3155 22.0163L84.1298 22.8851L84.1298 13.5938Z" fill="#EAE2E1"/>
<path d="M80.0754 12.4205C80.0765 12.2296 80.0398 12.0405 79.9675 11.8639C79.8952 11.6873 79.7887 11.5267 79.6541 11.3914C79.5196 11.2561 79.3596 11.1487 79.1834 11.0755C79.0072 11.0022 78.8183 10.9645 78.6274 10.9645C78.4366 10.9645 78.2477 11.0022 78.0715 11.0755C77.8953 11.1487 77.7353 11.2561 77.6007 11.3914C77.4661 11.5267 77.3597 11.6873 77.2874 11.8639C77.2151 12.0405 77.1784 12.2296 77.1794 12.4205L77.1794 13.5939H80.0754L80.0754 12.4205Z" fill="#FD9F28"/>
<path d="M78.6274 38.5808C78.9244 38.5808 79.2182 38.5198 79.4907 38.4017C79.7632 38.2836 80.0086 38.1109 80.2117 37.8942C80.4148 37.6775 80.5713 37.4214 80.6714 37.1418C80.7716 36.8623 80.8134 36.5651 80.7942 36.2687L80.0636 24.9697L77.1911 24.9861L76.4607 36.2687C76.4415 36.5651 76.4832 36.8623 76.5834 37.1418C76.6836 37.4214 76.8401 37.6775 77.0432 37.8942C77.2462 38.1109 77.4916 38.2836 77.7641 38.4017C78.0366 38.5198 78.3304 38.5808 78.6274 38.5808Z" fill="#984D11"/>
<path d="M76.3806 22.8827L80.8687 22.8827L80.8687 25.1359L76.3806 25.1359L76.3806 22.8827Z" fill="#FD9F28"/>
<path d="M0.84375 33.7188L4.46875 32.5C5.05208 33.5417 5.89583 34.3958 7 35.0625C8.10417 35.7083 9.32292 36.0312 10.6562 36.0312C12.0312 36.0312 13.1354 35.6979 13.9688 35.0312C14.8021 34.3646 15.2188 33.5 15.2188 32.4375C15.2188 31.3125 14.7708 30.4375 13.875 29.8125C13 29.1875 11.7083 28.5833 10 28C7.5625 27.1875 5.91667 26.5417 5.0625 26.0625C2.83333 24.7917 1.71875 22.9479 1.71875 20.5312C1.71875 18.4896 2.52083 16.8438 4.125 15.5938C5.72917 14.3438 7.82292 13.7188 10.4062 13.7188C12.5312 13.7188 14.3438 14.2188 15.8438 15.2188C17.3646 16.1979 18.4688 17.4583 19.1562 19L15.6875 20.1562C14.3542 18.2188 12.5833 17.25 10.375 17.25C9.02083 17.25 7.94792 17.5521 7.15625 18.1562C6.36458 18.7604 5.96875 19.5521 5.96875 20.5312C5.96875 20.8229 6 21.1042 6.0625 21.375C6.125 21.625 6.25 21.8646 6.4375 22.0938C6.625 22.3229 6.79167 22.5208 6.9375 22.6875C7.08333 22.8542 7.32292 23.0312 7.65625 23.2188C7.98958 23.4062 8.25 23.5521 8.4375 23.6562C8.64583 23.7604 8.97917 23.8958 9.4375 24.0625C9.89583 24.2292 10.2188 24.3438 10.4062 24.4062C10.6146 24.4688 10.9896 24.5938 11.5312 24.7812C12.0729 24.9479 12.4375 25.0625 12.625 25.125C13.5833 25.4375 14.4271 25.7708 15.1562 26.125C15.8854 26.4792 16.5938 26.9375 17.2812 27.5C17.9896 28.0417 18.5312 28.7188 18.9062 29.5312C19.2812 30.3438 19.4688 31.2604 19.4688 32.2812C19.4688 34.5938 18.6354 36.3854 16.9688 37.6562C15.3229 38.9271 13.1875 39.5625 10.5625 39.5625C8.29167 39.5625 6.30208 39.0417 4.59375 38C2.88542 36.9375 1.63542 35.5104 0.84375 33.7188ZM26.4188 39V14.2812H31.45L35.7938 25.7812C36.1063 26.6354 36.5021 27.8021 36.9813 29.2812C37.4604 30.7396 37.7729 31.6875 37.9188 32.125H38.0438C39.0854 29.1042 39.825 26.9896 40.2625 25.7812L44.5125 14.2812H49.6063V39H45.5438V27.7812C45.5438 25.9062 45.6896 23.3646 45.9813 20.1562H45.8563L44.075 25.4062L39.5438 37.5938H36.4813L32.0125 25.4062L30.1688 20.125H30.0125C30.3458 23.125 30.5125 25.6771 30.5125 27.7812V39H26.4188ZM58.3375 39V14.2812H62.4625V39H58.3375Z" fill="#873E14"/>
<path d="M93.7812 39V14.2812H97.875V24.5625H107.875V14.2812H111.969V39H107.875V28.0312H97.875V39H93.7812Z" fill="#873E14"/>
</svg>
